<svg xmlns="http://www.w3.org/2000/svg" viewBox="0 0 128 128" width="128" height="128">
  <style>
    rect { fill: #000; }
    path { fill: #FFF; }
    @media (prefers-color-scheme: dark) {
      rect { fill: #000; }
      path { fill: #FFF; }
    }
  </style>
  <rect width="128" height="128" fill="#000"/>
  <path fill="#FFF" d="M64 8 C40 8 20 28 20 52 c0 12 6 22 15 28 C28 88 20 100 20 112 c0 8 6 14 14 14 h8 c8 0 14-6 14-14 0-12 8-24 20-28 C50 74 56 64 56 52 C56 28 36 8 64 8 Z M64 18 C48 18 35 31 35 47 c0 8 5 15 12 17 C44 68 40 74 40 80 c0 6 4 10 10 10 h8 c6 0 10-4 10-10 0-6-4-12-10-16 C53 40 58 33 58 24 C58 18 52 12 44 12 c-8 0-14 6-14 14 0 8 6 14 14 14 8 0 14-6 14-14 Z"/>
</svg>