<svg xmlns="http://www.w3.org/2000/svg" viewBox="0 0 128 128" fill="none">
  <!-- Black background circle -->
  <circle cx="64" cy="64" r="64" fill="#000"/>
  
  <!-- Wolf head silhouette (white) - simplified profile facing right -->
  <path fill="#fff" d="
    M38 92
    C38 92 30 85 28 78
    C26 71 32 65 38 62
    C44 59 52 58 58 60
    C64 62 68 68 68 74
    C68 80 62 85 56 85
    C50 85 44 88 40 92
    Z
    M58 60
    C58 60 62 52 70 48
    C78 44 88 46 94 52
    C100 58 102 68 100 76
    C98 84 90 88 82 88
    C74 88 66 84 62 78
    C58 72 58 66 58 60
    Z
    M90 52
    C90 52 94 46 100 44
    C106 42 112 44 116 50
    C120 56 118 64 114 70
    C110 76 102 76 96 74
    C90 72 88 64 90 52
    Z
    M42 76
    C42 76 38 70 36 64
    C34 58 38 52 44 48
    C50 44 58 44 62 48
    C66 52 68 58 66 64
    C64 70 60 76 54 78
    C48 80 42 76 42 76
    Z
    M70 48
    C70 48 74 40 80 36
    C86 32 94 32 98 36
    C102 40 102 46 98 50
    C94 54 88 56 82 54
    C76 52 72 48 70 48
    Z
    M30 66
    C30 66 24 58 22 50
    C20 42 26 36 34 32
    C42 28 50 28 56 32
    C62 36 66 42 64 50
    C62 58 56 66 50 68
    C44 70 36 68 30 66
    Z
    M94 36
    C94 36 98 28 104 24
    C110 20 116 22 118 28
    C120 34 118 40 114 44
    C110 48 104 48 98 46
    C92 44 90 38 94 36
    Z
    M36 32
    C36 32 38 24 44 18
    C50 12 58 10 64 12
    C70 14 76 18 78 24
    C80 30 76 34 70 36
    C64 38 56 38 50 36
    C44 34 38 32 36 32
    Z
    M106 28
    C106 28 110 20 116 16
    C122 12 126 16 126 22
    C126 28 122 32 116 34
    C110 36 106 32 106 28
    Z
  "/>
  
  <!-- Ear -->
  <path fill="#fff" d="
    M48 38
    C48 38 44 26 42 18
    C40 10 46 6 54 6
    C62 6 66 10 64 18
    C62 26 58 38 48 38
    Z
  "/>
  
  <!-- Eye (small cutout) -->
  <circle cx="60" cy="56" r="3" fill="#000"/>
</svg>